<?xml version="1.0" ?><svg viewBox="0 0 64 64" xmlns="http://www.w3.org/2000/svg"><title/><g data-name="Layer 8" id="Layer_8"><path d="M10,16H54a4,4,0,0,1,4,4V50a0,0,0,0,1,0,0H6a0,0,0,0,1,0,0V20A4,4,0,0,1,10,16Z" style="fill:#8b909f"/><rect height="26" style="fill:#93cffb" width="44" x="10" y="20"/><rect height="40" rx="4" style="fill:#e7ebf2" width="48" x="2" y="2"/><path d="M21,17h0a4.828,4.828,0,0,0,1.414,3.414l1.465,1.465A7.242,7.242,0,0,1,26,27h0a7.242,7.242,0,0,1-2.121,5.121l-.051.051A9.656,9.656,0,0,0,21,39H11a9.656,9.656,0,0,0-2.828-6.828l-.051-.051A7.242,7.242,0,0,1,6,27H6a7.242,7.242,0,0,1,2.121-5.121l1.465-1.465A4.828,4.828,0,0,0,11,17H21Z" style="fill:#f4c993"/><rect height="8" rx="4" style="fill:#8f6af4" width="10" x="35" y="24"/><polygon points="36 38 40 30 44 38 40 36 36 38" style="fill:#fff"/><path d="M2,58V54l4-4H58l4,4v4a4,4,0,0,1-4,4H6A4,4,0,0,1,2,58Z" style="fill:#8b909f"/><polygon points="6 50 2 54 62 54 58 50 6 50" style="fill:#a2a6b2"/><path d="M50,6a4,4,0,0,0-4-4H6A4,4,0,0,0,2,6v4H50Z" style="fill:#8f6af4"/><rect height="2" style="fill:#fff" width="2" x="43" y="5"/><rect height="2" style="fill:#fff" width="2" x="39" y="5"/><rect height="2" style="fill:#fff" width="2" x="35" y="5"/><path d="M2,14H40a2,2,0,0,0,2-2V10H2Z" style="fill:#fff"/><rect height="4" style="fill:#e7ebf2" width="2" x="9" y="10"/><rect height="4" style="fill:#e7ebf2" width="2" x="17" y="10"/><rect height="4" style="fill:#e7ebf2" width="2" x="25" y="10"/><rect height="4" style="fill:#e7ebf2" width="2" x="33" y="10"/><path d="M26,27a7.243,7.243,0,0,0-1.206-4H7.206A7.243,7.243,0,0,0,6,27a7.1,7.1,0,0,0,.058.864l5.2,1.45A10.209,10.209,0,0,1,16,32a10.209,10.209,0,0,1,4.744-2.686l5.209-1.523A7.162,7.162,0,0,0,26,27Z" style="fill:#4590f4"/><path d="M16,32a10.213,10.213,0,0,0-1-.873V39h2V31.127A10.213,10.213,0,0,0,16,32Z" style="fill:#cab498"/></g></svg>