<?xml version="1.0" ?><!DOCTYPE svg  PUBLIC '-//W3C//DTD SVG 1.1//EN'  'http://www.w3.org/Graphics/SVG/1.1/DTD/svg11.dtd'><svg height="100%" style="fill-rule:evenodd;clip-rule:evenodd;stroke-linejoin:round;stroke-miterlimit:2;" version="1.1" viewBox="0 0 512 512" width="100%" xml:space="preserve" xmlns="http://www.w3.org/2000/svg" xmlns:serif="http://www.serif.com/" xmlns:xlink="http://www.w3.org/1999/xlink"><g><g transform="matrix(2.82109,0,0,2.82109,-607.254,-864.11)"><path d="M216,410.081L216,377.995L226.402,377.995C230.343,377.995 232.908,378.156 234.105,378.472C238.482,379.63 240.627,383.508 240.627,387.895C240.627,392.728 237.895,396.58 233.211,397.571C231.669,397.898 229.654,397.996 226.724,397.996L222.506,397.996L222.506,410.081L216,410.081ZM222.506,383.449L222.506,392.504L226.043,392.504C228.593,392.504 230.291,392.332 231.151,391.997C232.902,391.313 233.865,389.859 233.865,387.992C233.865,385.744 232.485,384.071 230.276,383.665C229.506,383.523 227.958,383.449 225.624,383.449L222.506,383.449Z"/></g><g transform="matrix(2.82109,0,0,2.82109,-607.254,-864.11)"><path d="M241.885,398.124C241.885,396.08 242.386,394.103 243.396,392.193C244.405,390.276 245.834,388.821 247.681,387.814C249.528,386.807 251.585,386.3 253.866,386.3C257.388,386.3 260.267,387.441 262.518,389.724C264.769,392.014 265.891,394.894 265.891,398.385C265.891,401.906 264.754,404.823 262.488,407.136C260.215,409.448 257.358,410.604 253.91,410.604C251.779,410.604 249.745,410.119 247.808,409.157C245.879,408.195 244.405,406.785 243.396,404.92C242.386,403.062 241.885,400.794 241.885,398.124ZM248.212,398.452C248.212,400.757 248.758,402.525 249.85,403.748C250.949,404.98 252.295,405.591 253.903,405.591C255.503,405.591 256.85,404.98 257.934,403.748C259.018,402.525 259.564,400.742 259.564,398.407C259.564,396.132 259.018,394.379 257.934,393.156C256.85,391.925 255.503,391.313 253.903,391.313C252.295,391.313 250.949,391.925 249.85,393.156C248.758,394.379 248.212,396.147 248.212,398.452Z"/></g><g transform="matrix(2.82109,0,0,2.82109,-607.254,-864.11)"><path d="M275.074,410.081L268.927,410.081L268.927,386.794L274.659,386.794L274.659,388.992C276.561,386.659 279.857,385.004 284.02,387.442L282.097,392.866C281.057,392.193 280.093,391.856 279.203,391.856C278.335,391.856 277.6,392.093 277.004,392.567C276.404,393.043 275.934,393.898 275.591,395.139C275.247,396.381 275.074,398.983 275.074,402.939L275.074,410.081Z"/></g><g transform="matrix(2.82109,0,0,2.82109,-607.254,-864.11)"><path d="M308.63,410.081L302.445,410.081L302.445,398.213C302.445,395.7 302.314,394.076 302.049,393.344C301.492,391.803 300.168,391.049 298.639,391.049C296.611,391.049 294.723,392.195 294.061,394.204C293.743,395.169 293.583,396.95 293.583,399.552L293.583,410.081L287.398,410.081L287.398,386.794L293.156,386.794L293.156,388.918C294.286,387.198 297.541,386.233 300.644,386.233C304.142,386.233 307.444,387.781 308.286,391.379C308.512,392.344 308.63,393.832 308.63,395.625L308.63,410.081Z"/></g><g transform="matrix(2.82109,0,0,2.82109,-607.254,-864.11)"><path d="M319.16,370.782L392.185,370.782C394.283,370.782 396,372.498 396,374.597L396,417.404C396,419.503 394.283,421.219 392.185,421.219L319.16,421.219C317.062,421.219 315.346,419.503 315.346,417.404L315.346,374.597C315.346,372.498 317.062,370.782 319.16,370.782Z" style="fill:rgb(248,152,30);"/></g><g transform="matrix(2.82109,0,0,2.82109,-607.254,-864.11)"><path d="M369.303,410.092L369.322,379.521L375.234,379.521L374.91,389.278C376.457,388.063 379.03,387.371 381.346,387.371C384.008,387.532 386.349,388.413 387.986,390.018C390.003,391.994 391.017,395.034 390.99,398.743C390.99,401.078 390.641,403.521 389.616,405.544C388.108,408.52 385.044,410.648 381.601,410.648C378.796,410.648 376.347,409.74 374.789,408.379L374.789,410.092L369.303,410.092ZM375.15,398.636C375.15,403.157 377.02,405.839 380.224,405.839C383.698,405.839 384.915,402.507 384.915,399.13C384.915,395.772 384.005,391.985 379.996,391.985C376.497,391.985 375.15,395.126 375.15,398.636Z"/></g><g transform="matrix(2.82109,0,0,2.82109,-607.254,-864.11)"><path d="M342.286,410.081L336.411,410.081L336.411,398.649C336.411,396.268 336.286,394.635 336.035,393.942C335.506,392.481 334.248,391.953 332.795,391.953C330.566,391.953 329.076,393.132 328.447,395.036C328.145,395.951 327.993,397.731 327.993,400.196L327.993,410.081L322.118,410.081L322.118,379.495L328.03,379.495L328.03,389.375C329.242,388.327 331.636,387.389 334.584,387.389C338.092,387.389 341.159,389.043 341.959,392.501C342.174,393.416 342.286,394.826 342.286,396.525L342.286,410.081Z"/></g><g transform="matrix(2.82109,0,0,2.82109,-607.254,-864.11)"><path d="M345.65,387.911L351.543,387.911L351.543,399.313C351.543,401.694 351.668,403.326 351.919,404.02C352.447,405.481 353.793,406.039 355.153,406.039C357.317,406.039 359.077,404.709 359.523,402.956C359.824,402.042 359.885,400.201 359.885,397.735L359.885,387.911L365.81,387.911L365.81,410.081L360.298,410.081L360.298,407.706C358.867,409.389 356.29,410.614 353.347,410.614C349.768,410.614 346.805,409.009 346.005,405.552C345.792,404.637 345.65,403.227 345.65,401.528L345.65,387.911Z"/></g></g></svg>