<?xml version="1.0" ?><svg viewBox="0 0 64 64" xmlns="http://www.w3.org/2000/svg"><g id="flat"><rect height="46" rx="2" ry="2" style="fill:#aabece" width="58" x="3" y="3"/><rect height="6" style="fill:#aabece" width="36" x="14" y="55"/><polygon points="43 55 21 55 25 49 39 49 43 55" style="fill:#7d8d9c"/><rect height="34" style="fill:#f4f4e6" width="58" x="3" y="7"/><circle cx="32" cy="45" r="2" style="fill:#5a6470"/><rect height="2" style="fill:#fcf05a" width="2" x="56" y="44"/><rect height="2" style="fill:#fcf05a" width="2" x="52" y="44"/><path d="M41,13H23a12,12,0,1,0,9,19.919A11.995,11.995,0,1,0,41,13Z" style="fill:#ffd782"/><path d="M36,21a4.982,4.982,0,0,0-4,2.031A4.982,4.982,0,0,0,28,21H27v2h1a3,3,0,0,1,3,3v8h2V26a3,3,0,0,1,3-3h1V21Z" style="fill:#cc8e29"/><polygon points="41 13 23 13 21 7 43 7 41 13" style="fill:#f9bb4b"/><rect height="2" style="fill:#cc8e29" width="2" x="42" y="25"/><rect height="2" style="fill:#cc8e29" width="2" x="38" y="28"/><rect height="2" style="fill:#cc8e29" width="2" x="43" y="31"/><rect height="2" style="fill:#cc8e29" width="2" x="22" y="25"/><rect height="2" style="fill:#cc8e29" width="2" x="17" y="29"/></g></svg>