<svg  xmlns="http://www.w3.org/2000/svg" xmlns:xlink="http://www.w3.org/1999/xlink" width="861" height="300" viewBox="0 0 885 324"><path transform="translate(0 100)" d="M39.1602,-3.75977L39.1602,-25.8301Q30.4199,-25.9277 21.8262,-26.3184Q11.377,-26.7578 10.8887,-35.6934Q10.6934,-39.3555 10.6934,-42.4805Q10.6934,-46.2891 10.8887,-50.0488Q11.0352,-54.3457 13.7207,-57.0068Q16.4062,-59.668 21.7285,-59.8145Q30.2246,-60.1074 39.1602,-60.1074L39.1602,-71.6309Q39.1602,-73.8281 40.6738,-74.8779Q42.1875,-75.9277 44.0918,-75.9277Q45.9961,-75.9277 47.583,-74.8535Q49.1699,-73.7793 49.1699,-71.6309L49.1699,-60.1074Q58.1055,-60.1074 66.9434,-59.8145Q76.6113,-59.1797 77.6367,-50.7812Q77.8809,-47.5098 77.8809,-43.8965Q77.8809,-39.8438 77.6367,-35.791Q77.1973,-27.1973 66.2109,-26.3184Q57.6172,-25.9277 49.1699,-25.8301L49.1699,-3.75977Q49.1699,-1.75781 47.6318,-0.756836Q46.0938,0.244141 44.0918,0.244141Q42.1875,0.244141 40.6738,-0.756836Q39.1602,-1.75781 39.1602,-3.75977ZM49.1699,-51.1719L49.1699,-34.668Q57.373,-34.7656 64.5996,-35.0586Q67.1875,-35.1074 67.749,-36.9385Q68.3105,-38.7695 68.3105,-42.9688Q68.3105,-47.3633 67.749,-49.1455Q67.1875,-50.9277 64.5508,-50.9277Q57.5195,-51.1719 49.1699,-51.1719ZM39.1602,-34.6191L39.1602,-51.1719Q30.8594,-51.1719 23.8281,-50.9277Q21.0938,-50.7812 20.6055,-48.6572Q20.1172,-46.5332 20.1172,-42.5781Q20.1172,-38.4277 20.7031,-36.7676Q21.2891,-35.1074 23.9258,-35.0586Q30.957,-34.6191 39.1602,-34.6191Z"></path><path transform="translate(89 100)" d="M48.9258,-60.2051L75.2441,-60.2051Q77.5391,-60.2051 78.6865,-58.7158Q79.834,-57.2266 79.834,-55.4199Q79.834,-53.8574 78.7354,-52.417Q77.6367,-50.9766 75.4395,-50.9766L75.2441,-50.9766Q75.2441,-50.9766 62.5488,-51.2695Q60.0586,-35.9863 50.1953,-23.2422Q60.5469,-14.3066 76.7578,-11.7188Q78.9551,-11.2793 79.9561,-9.98535Q80.957,-8.69141 80.957,-7.03125Q80.957,-4.98047 79.3457,-3.00293Q77.7344,-1.02539 75,-1.02539Q74.8535,-1.02539 70.0684,-2.02637Q65.2832,-3.02734 58.3008,-6.32324Q51.3184,-9.61914 43.9941,-16.4062Q36.2793,-9.27734 28.9795,-5.76172Q21.6797,-2.24609 16.6992,-1.12305Q11.7188,-0 11.6699,-0Q9.08203,-0 7.56836,-1.7334Q6.05469,-3.4668 6.05469,-5.46875Q6.05469,-7.03125 7.15332,-8.37402Q8.25195,-9.7168 10.5469,-10.1074Q27.1973,-13.3789 37.6465,-23.4863Q32.8125,-29.7363 29.7852,-36.8164Q26.3672,-33.9844 24.4141,-32.7148Q22.4609,-31.4453 20.6543,-31.4453Q18.457,-31.4453 16.9922,-32.9346Q15.5273,-34.4238 15.5273,-36.3281Q15.5273,-37.6953 16.4307,-39.0381Q17.334,-40.3809 19.3359,-41.4551Q26.2207,-45.2637 29.1992,-49.8047Q29.8828,-50.9766 30.957,-51.3672Q12.0117,-50.9766 12.0117,-50.9766L11.9141,-50.9766Q9.52148,-50.9766 8.44727,-52.3682Q7.37305,-53.7598 7.37305,-55.3223Q7.37305,-57.1289 8.56934,-58.667Q9.76562,-60.2051 12.0117,-60.2051L38.6719,-60.2051L38.5742,-71.2402Q38.5742,-73.4863 40.1855,-74.6582Q41.7969,-75.8301 43.7988,-75.8301Q45.8008,-75.8301 47.4365,-74.6582Q49.0723,-73.4863 49.0723,-71.2402L48.9258,-60.2051ZM52.5391,-51.416Q43.9941,-51.416 33.9844,-51.3672Q37.793,-50.2441 37.793,-47.168Q37.793,-46.9727 37.6465,-46.0938Q37.5,-45.2148 36.6699,-43.9941Q39.1113,-36.3281 43.6523,-30.2246Q50.6348,-39.9414 52.5391,-51.416Z"></path><path transform="translate(176 100)" d="M78.3203,-26.5625L78.5156,-13.5742L78.5156,-13.3789Q78.5156,-7.76367 74.9023,-4.24805Q71.2891,-0.732422 62.5,-0.732422Q60.2539,-0.732422 58.1055,-0.927734Q55.957,-1.12305 54.6143,-2.19727Q53.2715,-3.27148 53.2715,-5.71289Q53.2715,-7.51953 54.3701,-8.95996Q55.4688,-10.4004 57.5684,-10.4004L58.1055,-10.4004Q61.1328,-10.0586 63.1836,-10.0586Q66.6992,-10.0586 67.6758,-11.377Q68.6523,-12.6953 68.6523,-15.7227Q68.6523,-38.6719 68.6035,-46.5576Q68.5547,-54.4434 68.4082,-57.959Q68.6523,-63.7207 62.9395,-63.3301L61.2793,-63.3301Q60.8887,-54.6875 59.5703,-43.457Q63.4277,-40.1367 65.21,-38.1348Q66.9922,-36.1328 67.4316,-34.9609Q67.8711,-33.7891 67.8711,-33.252Q67.8711,-29.6387 63.6719,-28.9551Q62.8418,-28.9551 61.9141,-29.3945Q60.9863,-29.834 60.2539,-30.9082Q59.1797,-32.6172 57.959,-33.9844Q55.7617,-23.7305 49.7559,-14.6973Q48.7305,-13.2324 47.583,-12.5732Q46.4355,-11.9141 45.3125,-11.9141Q43.5059,-11.9141 42.2363,-13.1592Q40.9668,-14.4043 40.9668,-16.1133Q40.9668,-17.334 41.748,-18.5059Q49.1699,-29.8828 50.8789,-40.7715Q47.6562,-43.2617 44.0918,-45.3613Q43.0176,-46.0449 42.5781,-46.8506Q42.1387,-47.6562 42.1387,-48.5352Q42.1387,-49.9023 43.1641,-50.9766Q44.1895,-52.0508 45.752,-52.0508Q47.5586,-52.0508 51.9531,-48.877Q52.4902,-57.5195 52.6367,-63.4277L41.6504,-63.4277Q41.0156,-54.6875 39.5996,-43.457Q44.0918,-39.9902 45.9229,-37.9395Q47.7539,-35.8887 47.7539,-33.9844Q47.7539,-32.2754 46.5332,-31.0059Q45.3125,-29.7363 43.75,-29.7363Q41.9434,-29.7363 40.4297,-31.5918Q39.2578,-33.252 37.8906,-34.668Q37.0117,-30.9082 35.083,-25.9033Q33.1543,-20.8984 30.542,-16.9922Q27.9297,-13.0859 25.0977,-13.0859Q23.3887,-13.0859 22.1924,-14.2578Q20.9961,-15.4297 20.9961,-17.0898Q20.9961,-18.5059 21.9727,-19.7754Q28.9062,-29.3945 30.7129,-40.7715Q27.3438,-43.0664 23.3887,-45.1172Q21.2891,-46.4844 21.2891,-48.291Q21.2891,-49.6094 22.3389,-50.708Q23.3887,-51.8066 25,-51.8066Q26.416,-51.8066 31.7383,-48.6328Q32.6172,-55.957 33.0078,-63.4277Q29.6387,-63.4277 26.3184,-63.3301Q22.9492,-63.2324 21.7285,-61.9141Q20.5078,-60.5957 20.5078,-57.959Q20.0684,-43.9941 20.0684,-28.3691Q20.0684,-16.3086 20.2637,-3.75977L20.2637,-3.66211Q20.2637,-1.66016 18.75,-0.610352Q17.2363,0.439453 15.5273,0.439453Q13.7207,0.439453 12.2559,-0.610352Q10.791,-1.66016 10.791,-3.56445L10.791,-3.66211Q10.9375,-32.9102 11.2793,-62.207Q11.4746,-66.4062 14.3555,-68.8721Q17.2363,-71.3379 21.9727,-71.4355Q33.6914,-71.7285 45.9473,-71.7285Q56.7871,-71.7285 67.2852,-71.4355Q71.4844,-71.3379 74.585,-68.8721Q77.6855,-66.4062 77.9297,-61.377Q78.3203,-41.4551 78.3203,-26.5625Z"></path><path transform="translate(264 100)" d="M76.8066,-24.4141L55.127,-24.2188Q55.2734,-22.7051 55.2734,-20.9961Q55.2734,-17.627 54.3945,-13.916Q53.5156,-10.2051 51.3916,-6.93359Q49.2676,-3.66211 45.6055,-1.61133Q41.9434,0.439453 36.377,0.439453Q35.8887,0.439453 34.1553,0.292969Q32.4219,0.146484 30.4932,-0.390625Q28.5645,-0.927734 27.124,-2.14844Q25.6836,-3.36914 25.6836,-5.56641Q25.6836,-7.22656 26.8799,-8.61816Q28.0762,-10.0098 30.0781,-10.0098Q30.957,-10.0098 31.8359,-9.7168Q34.4727,-8.83789 36.8652,-8.83789Q40.1367,-8.83789 42.0166,-10.376Q43.8965,-11.9141 44.7998,-14.0137Q45.7031,-16.1133 45.8984,-18.1396Q46.0938,-20.166 46.0938,-21.1426Q46.0938,-22.7051 45.8984,-24.1699L10.7422,-23.7305L10.6445,-23.7305Q8.39844,-23.7305 7.34863,-24.9756Q6.29883,-26.2207 6.29883,-27.832Q6.29883,-29.4434 7.39746,-30.7617Q8.49609,-32.0801 10.6445,-32.2754L41.1621,-32.5684Q39.7949,-33.5449 38.0859,-34.2285Q36.5723,-34.9609 35.9131,-35.8887Q35.2539,-36.8164 35.2539,-37.8418Q35.2539,-39.5508 36.6943,-40.918Q38.1348,-42.2852 40.3809,-42.2852Q41.7969,-42.2852 43.042,-41.7725Q44.2871,-41.2598 45.3125,-40.5762Q46.3867,-41.1621 47.9736,-42.2119Q49.5605,-43.2617 50.8301,-44.1895Q52.0996,-45.1172 52.0996,-45.459Q52.0996,-45.8984 51.2695,-45.8008Q49.4629,-45.8984 45.6055,-45.8984Q37.6465,-45.8984 27.1484,-45.459L26.8555,-45.459Q24.7559,-45.459 23.6572,-46.6797Q22.5586,-47.9004 22.5586,-49.3652Q22.5586,-50.8789 23.6572,-52.1484Q24.7559,-53.418 27.0508,-53.4668Q36.2793,-53.8574 45.8008,-53.8574Q51.9043,-53.8574 56.2988,-53.6133Q60.1074,-53.418 62.0117,-51.7334Q63.916,-50.0488 63.916,-47.7539Q63.916,-44.873 61.1816,-42.1875Q58.4473,-39.502 51.1719,-35.0586Q51.9043,-33.8867 52.6367,-32.6172L76.8066,-32.959L76.8555,-32.959Q78.9551,-32.959 80.0293,-31.6162Q81.1035,-30.2734 81.1035,-28.6621Q81.1035,-27.0996 80.0293,-25.7568Q78.9551,-24.4141 76.8066,-24.4141ZM48.8281,-72.1191L48.8281,-66.4062Q58.1055,-66.4062 67.334,-66.2598Q71.6797,-66.1133 74.4873,-63.7451Q77.2949,-61.377 77.6367,-57.1289Q77.6855,-54.8828 77.6855,-52.5879Q77.6855,-50.7812 77.6367,-49.3652Q77.3926,-47.168 75.7812,-46.0205Q74.1699,-44.873 72.3145,-44.873Q70.4102,-44.873 68.9209,-45.9717Q67.4316,-47.0703 67.4316,-49.2188L67.4316,-49.3652Q67.4316,-54.4434 66.6992,-56.2744Q65.9668,-58.1055 62.3535,-58.1055Q52.2461,-58.3984 41.7969,-58.3984Q32.8613,-58.3984 24.6582,-58.1055Q21.582,-58.0078 20.459,-56.958Q19.3359,-55.9082 19.2383,-53.6133L19.2383,-48.9746Q19.2383,-46.8262 17.7002,-45.6543Q16.1621,-44.4824 14.3066,-44.4824Q12.5977,-44.4824 11.1328,-45.6543Q9.66797,-46.8262 9.52148,-49.2188Q9.52148,-50.9766 9.42383,-53.2227Q9.42383,-55.4199 9.52148,-57.6172Q9.57031,-60.8887 12.1094,-63.4521Q14.6484,-66.0156 19.6777,-66.2598Q29.1992,-66.4062 38.6719,-66.4062L38.6719,-72.1191Q38.6719,-74.3164 40.2344,-75.4395Q41.7969,-76.5625 43.75,-76.5625Q45.7031,-76.5625 47.2656,-75.4395Q48.8281,-74.3164 48.8281,-72.1191Z"></path><path transform="translate(351 100)" d="M51.9531,-39.9414L37.8418,-39.9414Q35.0586,-39.9414 33.7402,-41.4551Q32.4707,-42.9688 32.4707,-45.1172Q32.4707,-47.4121 33.9844,-48.9746Q35.2539,-50.0488 37.8418,-50.0488L51.9531,-50.0488L51.9531,-69.043Q51.9531,-72.3145 53.6133,-73.584Q55.127,-74.9512 57.1777,-74.9512Q59.4238,-74.9512 60.9375,-73.3398Q62.207,-72.0215 62.207,-69.043L62.207,-50.0488L76.123,-50.0488Q78.7109,-50.0488 79.9316,-48.7305Q81.2988,-47.0703 81.2988,-45.0684Q81.2988,-42.5781 79.6387,-40.9668Q78.6621,-39.9414 76.123,-39.9414L62.207,-39.9414L62.207,-5.81055Q62.207,-2.92969 60.6934,-1.5625Q59.1309,-0.244141 57.0801,-0.244141Q54.7852,-0.244141 53.0762,-1.95312Q51.9531,-3.17383 51.9531,-5.81055L51.9531,-39.9414ZM27.3438,-16.8945Q30.2246,-18.8477 32.0312,-20.5078Q34.7168,-22.7051 36.084,-22.7051Q37.5977,-22.7051 39.209,-20.752Q40.9668,-18.8477 40.9668,-17.0898Q40.9668,-14.7949 35.6934,-10.498Q33.0566,-8.20312 27.5391,-4.73633Q22.9004,-1.70898 20.3125,-1.70898Q18.9941,-1.70898 17.4316,-3.66211Q15.8203,-5.71289 15.8203,-7.51953L17.7246,-15.0879L17.7246,-40.3809Q17.7246,-42.1875 15.9668,-42.1875L9.22852,-42.1875Q7.95898,-42.1875 6.73828,-43.457Q5.37109,-45.1172 5.37109,-47.2656Q5.37109,-49.5605 6.98242,-50.9766Q7.95898,-51.9531 9.22852,-51.9531L19.4336,-51.9531Q23.3398,-51.9531 25.4395,-49.707Q27.3438,-47.7539 27.3438,-43.6523L27.3438,-16.8945ZM17.9199,-74.0234Q20.166,-73.7793 23.0469,-71.6309Q33.8379,-63.916 33.8379,-59.8145Q33.8379,-57.666 32.0312,-55.957Q30.5664,-54.5898 28.8574,-54.5898Q26.7578,-54.5898 21.5332,-59.4727Q20.0684,-60.7422 15.0391,-65.1367Q12.9395,-66.7969 12.9395,-68.6035Q12.9395,-70.9473 14.8438,-72.6562Q16.3574,-74.2188 17.9199,-74.0234Z"></path><path transform="translate(438 100)" d="M30.127,-29.9805Q34.3262,-34.2285 36.1816,-37.0605Q39.2578,-41.6992 40.1367,-42.2852Q40.918,-42.8711 41.9434,-42.8711Q43.9453,-42.8711 45.459,-41.6504Q46.7773,-40.4785 46.7773,-38.9648Q46.7773,-36.5723 42.4805,-30.4688Q39.2578,-26.123 33.7402,-20.4102Q36.8164,-14.6973 38.8672,-14.6973Q39.7949,-14.6973 40.5273,-15.625Q41.0156,-16.3086 41.3574,-18.6035Q42.1387,-22.9492 44.2383,-22.9492Q46.4844,-22.9492 48.3398,-21.9238Q50,-21.0449 50,-18.8477Q50,-14.0137 48.0957,-8.39844Q46.582,-4.15039 44.4336,-2.44141Q42.4805,-0.830078 40.1367,-0.830078Q35.9375,-0.830078 31.8359,-4.19922Q28.7598,-6.68945 25.3418,-13.3301Q18.8965,-8.69141 15.9668,-7.22656Q13.2324,-5.71289 11.2305,-5.71289Q9.91211,-5.71289 8.49609,-7.32422Q6.73828,-9.57031 6.73828,-11.7188Q6.73828,-13.916 11.084,-16.3086Q18.1641,-20.3125 21.7285,-22.9492Q19.9219,-30.127 18.4082,-43.5547L10.791,-42.5781Q10.498,-42.4805 10.2539,-42.4805Q8.69141,-42.4805 7.56836,-43.6523Q6.39648,-45.1172 6.39648,-47.5098Q6.39648,-51.6113 9.61914,-51.9531L17.6758,-53.0762Q17.334,-57.6172 17.0898,-63.3301Q16.8457,-65.7227 16.8457,-66.748Q16.6992,-68.9453 16.6992,-69.7754Q16.6992,-72.4609 17.8223,-73.4375Q19.043,-74.4141 21.6309,-74.4141Q24.6094,-74.4141 25.4395,-72.8027Q26.2207,-71.4355 26.2207,-67.1875Q26.416,-63.0859 26.9531,-54.1992L44.043,-56.2988Q44.3359,-56.3965 44.873,-56.3965Q46.582,-56.3965 47.4609,-55.2734Q48.584,-53.7598 48.584,-51.416Q48.584,-47.7539 45.5566,-47.2656L27.7832,-44.873Q28.3203,-36.8652 30.127,-29.9805ZM60.8398,-63.4766L60.8398,-23.0469Q60.8398,-20.9961 59.5215,-19.9219Q58.3008,-18.7988 56.3477,-18.7988Q52.0996,-18.7988 52.002,-23.0469L52.002,-63.4277Q52.002,-65.625 53.3691,-66.748Q54.7852,-67.8223 56.3477,-67.8223Q58.3496,-67.8223 59.7656,-66.4062Q60.8398,-65.1855 60.8398,-63.4766ZM78.125,-70.6055L78.125,-11.7188Q78.125,-5.71289 74.9512,-3.17383Q72.5098,-1.2207 66.4062,-1.2207Q58.9844,-1.2207 55.2734,-3.07617Q52.8809,-4.29688 52.8809,-7.42188Q52.8809,-9.91211 54.3457,-11.4258Q55.0293,-12.0117 55.8105,-12.0117Q57.0801,-12.0117 58.6914,-11.7188Q62.9883,-10.8398 65.8691,-10.8398Q68.7012,-10.8398 68.7988,-14.0625L68.7988,-70.6055Q68.7988,-72.5586 70.1172,-73.6816Q71.5332,-74.8535 73.3398,-74.8535Q75.5371,-74.8535 77.002,-73.2422Q78.125,-72.0215 78.125,-70.6055ZM34.8633,-73.0469Q36.9141,-72.9492 39.7949,-68.8965Q42.3828,-65.3809 42.7734,-64.8926Q44.0918,-62.793 44.0918,-61.6211Q44.0918,-60.3027 42.334,-58.8379Q40.5273,-57.373 38.7207,-57.373Q37.3535,-57.373 35.1074,-60.4004Q32.7637,-63.8184 31.543,-65.3809Q29.7363,-67.9199 29.7363,-68.7988Q29.7363,-70.2637 31.2988,-71.582Q33.1055,-73.0469 34.8633,-73.0469Z"></path><path transform="translate(0 200)" d="M19.6777,-55.9082L19.6777,-55.9082L19.6777,-11.084Q19.6777,-8.78906 21.2891,-7.22656Q22.9004,-5.66406 25.1953,-5.66406L25.7324,-5.66406Q28.0762,-5.66406 29.6631,-7.22656Q31.25,-8.78906 31.25,-11.084L31.25,-55.9082L42.9688,-55.9082Q45.166,-55.9082 46.8018,-57.4951Q48.4375,-59.082 48.4375,-61.377L48.4375,-61.377Q48.4375,-63.6719 46.8018,-65.2344Q45.166,-66.7969 42.9688,-66.7969L8.00781,-66.7969Q5.76172,-66.7969 4.12598,-65.2344Q2.49023,-63.6719 2.49023,-61.377L2.49023,-61.377Q2.49023,-59.082 4.12598,-57.4951Q5.76172,-55.9082 8.00781,-55.9082L19.6777,-55.9082Z"></path><path transform="translate(51 200)" d="M11.9141,-66.7969L11.9141,-66.7969Q9.66797,-66.7969 8.03223,-65.21Q6.39648,-63.623 6.39648,-61.1816L6.39648,-11.2793Q6.39648,-8.88672 8.03223,-7.27539Q9.66797,-5.66406 11.9141,-5.66406L11.9141,-5.66406Q14.2578,-5.66406 15.8936,-7.27539Q17.5293,-8.88672 17.5293,-11.2793L17.5293,-27.7344Q17.5293,-32.959 20.3125,-36.5723Q23.291,-40.1367 27.6367,-40.1367Q31.3477,-40.1367 33.5449,-37.8418Q35.9375,-35.5469 35.9375,-31.3477L35.9375,-11.2793Q35.9375,-8.88672 37.5244,-7.27539Q39.1113,-5.66406 41.4551,-5.66406L41.4551,-5.66406Q43.75,-5.66406 45.3857,-7.27539Q47.0215,-8.88672 47.0215,-11.2793L47.0215,-32.7148Q47.0215,-41.1133 42.8223,-45.8496Q38.623,-50.5859 30.7129,-50.5859Q26.5625,-50.5859 22.9492,-48.7305Q19.3359,-46.8262 17.5293,-43.75L16.7969,-43.75L17.5293,-51.123Q17.5293,-51.3672 17.5293,-51.6602L17.5293,-61.1816Q17.5293,-63.623 15.8936,-65.21Q14.2578,-66.7969 11.9141,-66.7969L11.9141,-66.7969Z"></path><path transform="translate(104 200)" d="M14.6484,-7.27539L14.6484,-7.27539Q19.873,-4.24805 26.2695,-4.24805Q37.3535,-4.24805 43.7012,-11.9629Q44.9219,-13.3789 44.6045,-15.1367Q44.2871,-16.8945 42.5781,-17.8711L40.2832,-18.9453Q37.7441,-20.0195 35.791,-18.0176Q34.5703,-16.6992 33.0566,-15.8203Q30.3223,-14.209 26.4648,-14.209Q21.9238,-14.209 18.5547,-16.7969Q15.332,-19.5801 14.502,-24.8047L43.5547,-24.8047Q45.1172,-24.8047 46.167,-25.8545Q47.2168,-26.9043 47.3145,-28.5156Q47.3145,-28.5156 47.3145,-28.5156Q47.3145,-34.668 44.873,-39.7461Q42.2852,-44.7754 37.5,-47.7051Q32.6172,-50.5859 25.8789,-50.5859Q19.6289,-50.5859 14.502,-47.4121Q9.42383,-44.2871 6.54297,-39.0137Q3.61328,-33.5938 3.61328,-27.3438Q3.61328,-20.752 6.54297,-15.4785Q9.52148,-10.2539 14.6484,-7.27539ZM36.6211,-32.7148L36.6211,-32.7148L15.0391,-32.7148Q16.3086,-36.7676 19.0918,-39.0625Q22.0215,-41.4551 25.9766,-41.4551Q29.1016,-41.4551 31.4941,-40.0879Q33.8379,-38.8184 35.1074,-36.7676Q36.4746,-34.7656 36.6211,-32.7148Z"></path><path transform="translate(155 200)" d=""></path><path transform="translate(178 200)" d="M8.39844,-61.0352L8.39844,-61.0352L8.39844,-11.4258Q8.39844,-9.08203 10.1074,-7.37305Q11.8164,-5.66406 14.1602,-5.66406L14.1602,-5.66406Q16.6016,-5.66406 18.3105,-7.37305Q20.0195,-9.08203 20.0195,-11.4258L20.0195,-28.125L29.9805,-28.125Q35.791,-28.125 40.6738,-30.6152Q45.5078,-32.959 48.1934,-37.4512Q50.9766,-41.8457 50.9766,-47.5586Q50.9766,-53.1738 48.1934,-57.5195Q45.5078,-61.9629 40.6738,-64.4531Q35.791,-66.7969 29.9805,-66.7969L14.1602,-66.7969Q11.8164,-66.7969 10.1074,-65.1123Q8.39844,-63.4277 8.39844,-61.0352ZM30.3711,-39.0625L30.3711,-39.0625L20.0195,-39.0625L20.0195,-55.9082L30.3711,-55.9082Q34.668,-55.9082 37.1094,-53.4668Q39.5508,-50.9766 39.5508,-47.5586Q39.5508,-44.043 37.1094,-41.5527Q34.668,-39.0625 30.3711,-39.0625Z"></path><path transform="translate(232 200)" d="M11.6211,-49.2188L11.6211,-49.2188Q9.47266,-49.2188 7.93457,-47.6807Q6.39648,-46.1426 6.39648,-44.043L6.39648,-10.8887Q6.39648,-8.74023 7.93457,-7.20215Q9.47266,-5.66406 11.6211,-5.66406L12.3047,-5.66406Q14.4531,-5.66406 15.9912,-7.20215Q17.5293,-8.74023 17.5293,-10.8887L17.5293,-27.3438Q17.5293,-32.8125 20.4102,-36.4258Q23.3398,-39.9902 28.2715,-39.9902Q29.9805,-39.9902 31.6406,-39.6484L31.6406,-39.6484Q33.1543,-39.3066 34.3018,-40.21Q35.4492,-41.1133 35.4492,-42.627L35.4492,-47.168Q35.4492,-48.3887 34.7412,-49.2432Q34.0332,-50.0977 32.9102,-50.2441Q31.543,-50.4883 29.9805,-50.4883Q25.9766,-50.4883 22.5586,-48.4375Q19.1406,-46.5332 17.5293,-43.457L16.7969,-43.457L16.7969,-44.043Q16.7969,-46.1426 15.2588,-47.6807Q13.7207,-49.2188 11.6211,-49.2188L11.6211,-49.2188Z"></path><path transform="translate(268 200)" d="M14.8193,-7.2998Q9.52148,-10.3516 6.56738,-15.625Q3.61328,-20.8984 3.61328,-27.4414Q3.61328,-33.9355 6.56738,-39.2334Q9.52148,-44.5312 14.8193,-47.5586Q20.1172,-50.5859 26.8555,-50.5859Q33.5449,-50.5859 38.8428,-47.5586Q44.1406,-44.5312 47.0703,-39.2334Q50,-33.9355 50,-27.4414Q50,-20.8984 47.0703,-15.625Q44.1406,-10.3516 38.8428,-7.2998Q33.5449,-4.24805 26.8555,-4.24805Q20.1172,-4.24805 14.8193,-7.2998ZM32.8613,-16.1377Q35.5957,-17.6758 37.2314,-20.5811Q38.8672,-23.4863 38.8672,-27.4414Q38.8672,-31.25 37.2314,-34.1797Q35.5957,-37.1094 32.8613,-38.623Q30.127,-40.1367 26.8555,-40.1367Q23.6328,-40.1367 20.8984,-38.623Q18.1641,-37.1094 16.5039,-34.1797Q14.8438,-31.25 14.8438,-27.4414Q14.8438,-23.584 16.5039,-20.6299Q18.1641,-17.6758 20.8984,-16.1377Q23.6328,-14.5996 26.8555,-14.5996Q30.127,-14.5996 32.8613,-16.1377Z"></path><path transform="translate(322 200)" d="M6.27441,-56.1768Q4.15039,-58.3496 4.15039,-61.2793Q4.15039,-64.3066 6.27441,-66.4062Q8.39844,-68.5059 11.4258,-68.5059Q14.4043,-68.5059 16.5039,-66.4062Q18.6035,-64.3066 18.6035,-61.2793Q18.6035,-58.3496 16.5039,-56.1768Q14.4043,-54.0039 11.4258,-54.0039Q8.39844,-54.0039 6.27441,-56.1768ZM-2.88086,9.375L-2.88086,9.375Q-2.88086,11.0352 -1.7334,12.2803Q-0.585938,13.5254 1.12305,13.623Q2.05078,13.6719 3.02734,13.6719Q9.17969,13.6719 13.0371,10.0098Q16.9434,6.34766 16.9434,-1.36719L16.9434,-43.5547Q16.9434,-45.9961 15.2832,-47.6074Q13.623,-49.2188 11.3281,-49.2188L11.3281,-49.2188Q8.88672,-49.2188 7.22656,-47.6074Q5.56641,-45.9961 5.56641,-43.5547L5.56641,-1.66016Q5.56641,0.927734 4.73633,2.24609Q3.75977,3.41797 1.75781,3.41797L1.66016,3.41797Q-0.244141,3.51562 -1.5625,4.80957Q-2.88086,6.10352 -2.88086,7.91016L-2.88086,9.375Z"></path><path transform="translate(346 200)" d="M14.6484,-7.27539L14.6484,-7.27539Q19.873,-4.24805 26.2695,-4.24805Q37.3535,-4.24805 43.7012,-11.9629Q44.9219,-13.3789 44.6045,-15.1367Q44.2871,-16.8945 42.5781,-17.8711L40.2832,-18.9453Q37.7441,-20.0195 35.791,-18.0176Q34.5703,-16.6992 33.0566,-15.8203Q30.3223,-14.209 26.4648,-14.209Q21.9238,-14.209 18.5547,-16.7969Q15.332,-19.5801 14.502,-24.8047L43.5547,-24.8047Q45.1172,-24.8047 46.167,-25.8545Q47.2168,-26.9043 47.3145,-28.5156Q47.3145,-28.5156 47.3145,-28.5156Q47.3145,-34.668 44.873,-39.7461Q42.2852,-44.7754 37.5,-47.7051Q32.6172,-50.5859 25.8789,-50.5859Q19.6289,-50.5859 14.502,-47.4121Q9.42383,-44.2871 6.54297,-39.0137Q3.61328,-33.5938 3.61328,-27.3438Q3.61328,-20.752 6.54297,-15.4785Q9.52148,-10.2539 14.6484,-7.27539ZM36.6211,-32.7148L36.6211,-32.7148L15.0391,-32.7148Q16.3086,-36.7676 19.0918,-39.0625Q22.0215,-41.4551 25.9766,-41.4551Q29.1016,-41.4551 31.4941,-40.0879Q33.8379,-38.8184 35.1074,-36.7676Q36.4746,-34.7656 36.6211,-32.7148Z"></path><path transform="translate(397 200)" d="M14.7461,-7.17773L14.7461,-7.17773Q19.9707,-4.24805 26.5625,-4.24805Q33.7402,-4.24805 38.9648,-7.42188Q40.8691,-8.64258 42.334,-10.0586Q44.4824,-12.2559 43.9697,-14.9658Q43.457,-17.6758 40.7715,-18.9453L40.7715,-18.9453Q37.4023,-20.3125 34.7168,-17.8711Q31.6406,-14.5996 26.5625,-14.5996Q21.4355,-14.5996 18.0664,-18.1152Q14.8438,-21.6309 14.8438,-27.4414Q14.8438,-33.1543 18.0664,-36.6699Q21.4355,-40.1367 26.5625,-40.1367Q31.3965,-40.1367 34.2773,-37.3047Q36.8652,-34.7656 40.2832,-36.0352L40.4297,-36.1328Q43.2129,-37.4512 43.7744,-40.1367Q44.3359,-42.8223 42.2363,-44.9707Q40.8691,-46.4355 39.0625,-47.4121Q33.8379,-50.5859 26.5625,-50.5859Q19.9707,-50.5859 14.7461,-47.6074Q9.52148,-44.6289 6.54297,-39.4043Q3.61328,-34.1309 3.61328,-27.4414Q3.61328,-20.752 6.54297,-15.4785Q9.52148,-10.1562 14.7461,-7.17773Z"></path><path transform="translate(447 200)" d="M18.6523,-5.27344L18.6523,-5.27344Q21.3867,-4.24805 24.707,-4.24805Q27.8809,-4.24805 30.9082,-5.22461Q32.3242,-5.81055 32.3242,-7.08008L32.3242,-13.3301Q32.3242,-14.4531 31.4697,-15.0146Q30.6152,-15.5762 29.5898,-15.1855L29.5898,-15.1855Q28.5156,-14.7949 26.9531,-14.7949Q24.0234,-14.7949 22.9004,-16.1621Q21.3867,-17.5781 21.3867,-20.9473L21.3867,-39.0137L27.2949,-39.0137Q29.248,-39.0137 30.6396,-40.3809Q32.0312,-41.748 32.0312,-43.75L32.0312,-43.75Q32.0312,-45.752 30.6396,-47.1436Q29.248,-48.5352 27.2949,-48.5352L21.3867,-48.5352L21.3867,-56.0547Q21.3867,-58.0078 20.0195,-59.4482Q18.6523,-60.8887 16.6992,-60.8887L15.0879,-60.8887Q13.0859,-60.8887 11.6943,-59.4482Q10.3027,-58.0078 10.3027,-56.0547L10.3027,-48.5352L7.56836,-48.5352Q5.56641,-48.5352 4.1748,-47.1436Q2.7832,-45.752 2.7832,-43.75L2.7832,-43.75Q2.7832,-41.748 4.1748,-40.3809Q5.56641,-39.0137 7.56836,-39.0137L10.3027,-39.0137L10.3027,-18.8477Q10.3027,-11.7676 14.3066,-7.91016Q16.0156,-6.20117 18.6523,-5.27344Z"></path><path transform="translate(484 200)" d=""></path><path transform="translate(507 200)" d="M13.5254,-66.7969L13.5254,-66.7969Q11.2305,-66.7969 9.61914,-65.2344Q8.00781,-63.6719 8.00781,-61.377L8.00781,-11.084Q8.00781,-8.78906 9.61914,-7.22656Q11.2305,-5.66406 13.5254,-5.66406L14.1113,-5.66406Q16.4551,-5.66406 18.0176,-7.22656Q19.5801,-8.78906 19.5801,-11.084L19.5801,-30.0781L38.916,-30.0781Q41.2598,-30.0781 42.8711,-31.6895Q44.4824,-33.3008 44.4824,-35.5469L44.4824,-35.5469Q44.4824,-37.8418 42.8711,-39.4287Q41.2598,-41.0156 38.916,-41.0156L19.5801,-41.0156L19.5801,-55.9082L41.6504,-55.9082Q43.9941,-55.9082 45.6055,-57.4951Q47.2168,-59.082 47.2168,-61.377L47.2168,-61.377Q47.2168,-63.6719 45.6055,-65.2344Q43.9941,-66.7969 41.6504,-66.7969L13.5254,-66.7969Z"></path><path transform="translate(557 200)" d="M14.8193,-7.2998Q9.52148,-10.3516 6.56738,-15.625Q3.61328,-20.8984 3.61328,-27.4414Q3.61328,-33.9355 6.56738,-39.2334Q9.52148,-44.5312 14.8193,-47.5586Q20.1172,-50.5859 26.8555,-50.5859Q33.5449,-50.5859 38.8428,-47.5586Q44.1406,-44.5312 47.0703,-39.2334Q50,-33.9355 50,-27.4414Q50,-20.8984 47.0703,-15.625Q44.1406,-10.3516 38.8428,-7.2998Q33.5449,-4.24805 26.8555,-4.24805Q20.1172,-4.24805 14.8193,-7.2998ZM32.8613,-16.1377Q35.5957,-17.6758 37.2314,-20.5811Q38.8672,-23.4863 38.8672,-27.4414Q38.8672,-31.25 37.2314,-34.1797Q35.5957,-37.1094 32.8613,-38.623Q30.127,-40.1367 26.8555,-40.1367Q23.6328,-40.1367 20.8984,-38.623Q18.1641,-37.1094 16.5039,-34.1797Q14.8438,-31.25 14.8438,-27.4414Q14.8438,-23.584 16.5039,-20.6299Q18.1641,-17.6758 20.8984,-16.1377Q23.6328,-14.5996 26.8555,-14.5996Q30.127,-14.5996 32.8613,-16.1377Z"></path><path transform="translate(611 200)" d="M11.6211,-49.2188L11.6211,-49.2188Q9.47266,-49.2188 7.93457,-47.6807Q6.39648,-46.1426 6.39648,-44.043L6.39648,-10.8887Q6.39648,-8.74023 7.93457,-7.20215Q9.47266,-5.66406 11.6211,-5.66406L12.3047,-5.66406Q14.4531,-5.66406 15.9912,-7.20215Q17.5293,-8.74023 17.5293,-10.8887L17.5293,-27.3438Q17.5293,-32.8125 20.4102,-36.4258Q23.3398,-39.9902 28.2715,-39.9902Q29.9805,-39.9902 31.6406,-39.6484L31.6406,-39.6484Q33.1543,-39.3066 34.3018,-40.21Q35.4492,-41.1133 35.4492,-42.627L35.4492,-47.168Q35.4492,-48.3887 34.7412,-49.2432Q34.0332,-50.0977 32.9102,-50.2441Q31.543,-50.4883 29.9805,-50.4883Q25.9766,-50.4883 22.5586,-48.4375Q19.1406,-46.5332 17.5293,-43.457L16.7969,-43.457L16.7969,-44.043Q16.7969,-46.1426 15.2588,-47.6807Q13.7207,-49.2188 11.6211,-49.2188L11.6211,-49.2188Z"></path><path transform="translate(649 200)" d=""></path><path transform="translate(672 200)" d="M9.375,-66.7969L9.375,-66.7969Q6.39648,-66.7969 4.56543,-64.4775Q2.73438,-62.1582 3.41797,-59.1797L16.1621,-11.377Q16.8945,-8.78906 18.9697,-7.22656Q21.0449,-5.66406 23.6816,-5.66406L23.8281,-5.66406Q29.0039,-5.66406 31.2988,-11.1816L40.625,-42.334Q40.7227,-42.5781 40.7227,-42.8223L42.041,-49.1699L42.7246,-49.1699L44.043,-42.7246Q44.1406,-42.5781 44.1406,-42.4316L53.0273,-11.2793Q55.2246,-5.66406 60.4492,-5.66406L61.0352,-5.66406Q63.7207,-5.66406 65.7471,-7.22656Q67.7734,-8.78906 68.5547,-11.4258L80.957,-59.1797Q81.6895,-62.2559 79.834,-64.5264Q77.9785,-66.7969 75,-66.7969L74.9023,-66.7969Q72.7539,-66.7969 71.0938,-65.5518Q69.4336,-64.3066 68.8965,-62.1582L61.8164,-32.7148Q61.7188,-32.4707 61.6211,-32.2266L60.7422,-26.2695L60.0586,-26.2695L58.6426,-32.2266Q58.6426,-32.4707 58.5449,-32.7148L49.7559,-61.377Q47.4609,-66.7969 42.334,-66.7969L42.334,-66.7969Q37.207,-66.7969 34.8633,-61.4746L25.9277,-32.7148Q25.8301,-32.4707 25.7324,-32.2266L24.4629,-26.0254L23.7793,-26.0254L22.7539,-32.2266Q22.6562,-32.4707 22.6562,-32.7148L15.3809,-62.1582Q14.8926,-64.3066 13.208,-65.5518Q11.5234,-66.7969 9.375,-66.7969L9.375,-66.7969Z"></path><path transform="translate(755 200)" d="M14.6484,-7.27539L14.6484,-7.27539Q19.873,-4.24805 26.2695,-4.24805Q37.3535,-4.24805 43.7012,-11.9629Q44.9219,-13.3789 44.6045,-15.1367Q44.2871,-16.8945 42.5781,-17.8711L40.2832,-18.9453Q37.7441,-20.0195 35.791,-18.0176Q34.5703,-16.6992 33.0566,-15.8203Q30.3223,-14.209 26.4648,-14.209Q21.9238,-14.209 18.5547,-16.7969Q15.332,-19.5801 14.502,-24.8047L43.5547,-24.8047Q45.1172,-24.8047 46.167,-25.8545Q47.2168,-26.9043 47.3145,-28.5156Q47.3145,-28.5156 47.3145,-28.5156Q47.3145,-34.668 44.873,-39.7461Q42.2852,-44.7754 37.5,-47.7051Q32.6172,-50.5859 25.8789,-50.5859Q19.6289,-50.5859 14.502,-47.4121Q9.42383,-44.2871 6.54297,-39.0137Q3.61328,-33.5938 3.61328,-27.3438Q3.61328,-20.752 6.54297,-15.4785Q9.52148,-10.2539 14.6484,-7.27539ZM36.6211,-32.7148L36.6211,-32.7148L15.0391,-32.7148Q16.3086,-36.7676 19.0918,-39.0625Q22.0215,-41.4551 25.9766,-41.4551Q29.1016,-41.4551 31.4941,-40.0879Q33.8379,-38.8184 35.1074,-36.7676Q36.4746,-34.7656 36.6211,-32.7148Z"></path><path transform="translate(806 200)" d="M22.7051,-6.10352L22.7051,-6.10352Q26.2207,-4.24805 30.7129,-4.24805Q36.5723,-4.24805 41.4062,-7.17773Q46.2402,-10.1562 48.9746,-15.332Q51.709,-20.6543 51.709,-27.4414Q51.709,-34.1309 48.9746,-39.4043Q46.2402,-44.7266 41.4062,-47.7051Q36.5723,-50.5859 30.7129,-50.5859Q26.2207,-50.5859 22.8027,-48.7305Q19.3848,-46.7773 17.5781,-43.9453L16.8945,-43.9453L17.5781,-49.8535Q17.5781,-50.0977 17.5781,-50.3418L17.5781,-61.6211Q17.5781,-63.7695 16.0645,-65.2832Q14.5508,-66.7969 12.3535,-66.7969L11.6211,-66.7969Q9.47266,-66.7969 7.93457,-65.2832Q6.39648,-63.7695 6.39648,-61.6211L6.39648,-10.8887Q6.39648,-8.74023 7.93457,-7.20215Q9.47266,-5.66406 11.6211,-5.66406L11.6699,-5.66406Q13.8184,-5.66406 15.3564,-7.20215Q16.8945,-8.74023 16.8945,-10.8887L16.8945,-10.8887L17.5781,-10.8887Q19.2871,-8.00781 22.7051,-6.10352ZM34.6191,-16.2109L34.6191,-16.2109Q31.8359,-14.5996 28.7598,-14.5996Q25.6836,-14.5996 22.9004,-16.2109Q20.166,-17.8711 18.5547,-20.752Q16.8945,-23.6816 16.8945,-27.4414Q16.8945,-31.1523 18.5547,-34.1309Q20.166,-37.0117 22.9004,-38.623Q25.6836,-40.1367 28.7598,-40.1367Q31.8359,-40.1367 34.6191,-38.623Q37.3535,-37.0117 38.9648,-34.1309Q40.625,-31.1523 40.625,-27.4414Q40.625,-23.6816 38.9648,-20.752Q37.3535,-17.8711 34.6191,-16.2109Z"></path></svg>